<?xml version="1.0" standalone="no"?>
<!DOCTYPE svg PUBLIC "-//W3C//DTD SVG 20010904//EN"
 "http://www.w3.org/TR/2001/REC-SVG-20010904/DTD/svg10.dtd">
<svg version="1.0" xmlns="http://www.w3.org/2000/svg"
 width="474.000000pt" height="474.000000pt" viewBox="0 0 474.000000 474.000000"
 preserveAspectRatio="xMidYMid meet">
<metadata>
Created by potrace 1.14, written by Peter Selinger 2001-2017
</metadata>
<g transform="translate(0.000000,474.000000) scale(0.100000,-0.100000)"
fill="#000000" stroke="none">
<path d="M0 3070 l0 -1671 39 -52 c21 -29 45 -65 54 -82 18 -35 67 -84 67 -67
0 7 -4 12 -9 12 -5 0 -16 16 -25 35 -9 19 -28 48 -43 65 -26 31 -42 110 -22
110 5 0 9 6 9 14 0 7 11 21 25 30 14 9 25 24 25 32 0 21 -68 -35 -69 -57 -1
-8 -8 -24 -16 -35 -14 -18 -14 -18 -15 0 0 26 36 97 71 137 18 21 27 41 23 51
-7 22 12 24 20 3 3 -8 15 -15 26 -15 20 0 64 -40 113 -103 12 -16 33 -43 47
-60 14 -18 17 -26 8 -19 -14 11 -17 10 -21 -5 -3 -12 -5 -10 -6 8 0 15 -8 33
-17 40 -15 12 -16 11 -11 -6 4 -11 11 -42 16 -70 6 -27 22 -88 36 -135 33
-107 75 -257 82 -291 4 -24 -2 -20 -58 32 -35 32 -65 56 -67 54 -3 -2 25 -33
61 -69 36 -35 67 -63 70 -60 2 2 15 -16 28 -41 13 -25 27 -45 32 -45 9 0 -2
49 -17 75 -18 30 -42 100 -71 205 -14 52 -32 112 -40 133 -22 56 -20 67 13 61
186 -32 180 -28 181 -116 1 -73 26 -118 64 -118 21 0 22 22 2 60 -11 22 -12
29 -2 33 8 3 6 7 -7 12 -11 5 -21 3 -27 -6 -12 -19 -11 -8 2 30 13 37 31 39
57 6 11 -14 27 -25 36 -25 23 0 20 31 -4 37 -11 3 -20 9 -20 14 0 5 -6 9 -13
9 -7 0 -13 9 -14 19 -2 30 -34 73 -49 67 -9 -3 -14 2 -14 14 0 10 -5 22 -11
26 -8 5 -10 -3 -7 -24 l4 -30 -60 1 c-39 0 -53 3 -41 8 17 7 18 8 3 8 -10 1
-18 5 -18 10 0 5 -13 14 -29 19 -23 8 -29 17 -33 50 -3 22 -16 54 -29 72 -24
32 -24 34 -23 285 1 230 3 256 20 286 30 51 41 46 48 -21 15 -134 69 -290 131
-384 35 -53 91 -100 107 -90 14 9 8 19 -27 41 -19 13 -43 40 -53 60 -28 56
-53 201 -59 350 l-6 131 29 15 c35 18 145 50 150 44 3 -2 2 -11 -1 -19 -4 -10
-16 -13 -38 -10 -25 3 -29 2 -20 -8 6 -7 9 -19 6 -27 -6 -16 24 -53 42 -53 19
0 24 -20 35 -148 15 -160 45 -247 120 -342 26 -33 28 -43 34 -165 15 -299 119
-681 205 -760 l22 -19 -19 45 c-31 71 -57 370 -32 354 6 -4 28 -41 50 -83 81
-159 190 -300 319 -412 42 -36 114 -104 161 -152 82 -84 145 -138 162 -138 4
0 -1 9 -12 20 -10 10 -26 43 -34 72 -8 29 -31 109 -51 176 -19 68 -35 135 -35
149 l0 25 31 -26 c107 -90 276 -138 358 -102 22 10 42 25 45 32 7 18 1 18 -30
-2 -20 -14 -40 -16 -101 -11 -91 7 -168 41 -257 115 -50 42 -61 57 -72 100
-12 45 -42 217 -58 326 l-5 38 37 -8 c20 -4 71 -9 113 -10 42 -1 94 -7 115
-13 47 -13 111 -14 118 -2 3 4 -22 11 -55 14 -33 3 -63 8 -67 11 -3 4 7 19 21
34 31 32 37 54 8 28 -11 -10 -38 -20 -60 -23 -38 -5 -44 -3 -79 34 -21 22 -58
78 -82 124 -47 91 -103 242 -86 232 22 -13 142 -107 195 -152 134 -114 352
-353 407 -447 14 -24 28 -44 30 -44 14 0 -89 163 -155 245 -47 57 -50 67 -18
60 41 -9 192 -14 231 -7 31 6 51 2 89 -16 32 -16 45 -27 38 -32 -8 -4 -1 -7
16 -7 15 -1 61 -11 100 -24 69 -22 78 -22 180 -11 192 20 596 110 621 138 4 3
-2 4 -13 1 -272 -77 -509 -121 -661 -122 l-101 0 -184 92 c-265 133 -581 338
-759 492 l-45 39 0 172 0 172 24 -34 c54 -73 148 -155 214 -188 55 -27 79 -33
136 -34 40 0 75 4 81 10 9 9 5 10 -14 7 -27 -6 -121 5 -113 13 2 2 -26 35 -63
72 -76 78 -139 195 -170 315 -23 93 -45 368 -36 467 14 153 64 363 67 279 0
-13 6 -40 13 -59 l13 -35 7 63 c11 94 38 150 83 168 48 21 148 50 196 58 35 7
37 6 37 -21 0 -50 11 -75 29 -67 9 3 23 6 31 6 8 1 27 12 41 25 23 21 30 23
46 12 11 -6 26 -21 32 -32 11 -16 9 -23 -15 -48 -33 -35 -37 -35 -74 -7 -35
26 -42 21 -64 -45 -34 -101 -12 -266 45 -338 35 -45 84 -82 100 -77 6 2 -8 16
-31 32 -54 35 -99 124 -81 162 13 29 36 31 50 6 7 -14 6 -25 -5 -41 -22 -30
-11 -38 12 -9 51 62 132 71 187 20 30 -29 51 -89 40 -118 -6 -18 -5 -18 16 1
22 19 23 19 37 1 7 -10 11 -22 9 -26 -9 -15 -104 -40 -152 -41 -46 -1 -47 -1
-18 -11 33 -12 128 3 176 27 36 19 99 92 133 155 27 50 27 52 7 45 -17 -5 -21
-2 -21 17 0 37 14 52 37 39 19 -9 21 -5 32 58 7 39 9 85 5 107 -7 37 -6 38 12
24 56 -43 55 -40 37 -71 -20 -34 -11 -49 16 -25 18 16 22 16 53 2 56 -25 118
-40 128 -30 5 5 45 95 88 199 90 215 199 529 249 715 39 145 36 97 -8 -125
-29 -148 -68 -298 -135 -525 -46 -156 -48 -160 -81 -160 -16 0 -35 -5 -43 -10
-11 -7 -5 -10 23 -10 l39 0 -7 -42 c-4 -24 -20 -67 -35 -95 -28 -52 -25 -73 4
-32 l15 22 133 -42 c129 -39 244 -66 395 -91 l73 -12 -27 -34 c-31 -41 -25
-53 13 -27 27 18 28 18 22 -5 -5 -19 -4 -21 8 -11 8 6 14 17 14 24 0 13 21 25
42 25 6 0 5 -6 -2 -15 -11 -13 -9 -21 9 -46 l23 -31 -24 -26 c-36 -41 -41 -43
-65 -20 -13 12 -24 20 -26 17 -42 -51 -91 -235 -57 -214 5 3 10 -2 10 -11 0
-16 1 -16 18 -1 30 27 77 22 101 -12 27 -37 43 -80 43 -111 0 -22 4 -25 36
-27 29 -1 33 0 20 8 -26 14 -24 59 2 59 19 0 25 -12 20 -35 -1 -5 -3 -14 -4
-20 -3 -21 -17 -33 -59 -53 -35 -17 -52 -19 -83 -12 -46 11 -56 5 -21 -11 31
-14 79 -6 132 22 46 24 95 68 95 83 0 6 -7 2 -15 -8 -8 -11 -15 -16 -15 -10 1
14 30 49 30 35 0 -23 21 0 45 52 29 59 29 58 13 54 -25 -4 -13 38 13 50 21 10
29 24 39 72 7 33 9 76 6 95 -4 20 -3 36 1 36 15 0 92 -56 111 -80 44 -57 54
-90 50 -166 -2 -41 -1 -74 2 -74 9 0 105 102 128 136 l21 31 -21 87 c-19 78
-23 86 -42 81 -21 -6 -21 -6 -2 9 11 9 25 16 32 16 30 0 21 21 -20 45 l-44 26
20 41 c38 78 108 421 108 527 0 17 5 31 11 31 7 0 8 5 2 13 -15 20 0 250 37
578 6 47 10 114 11 150 1 78 7 65 43 -86 37 -154 72 -342 92 -488 17 -123 17
-125 -5 -233 -12 -60 -24 -125 -26 -144 l-4 -35 14 39 c21 54 61 253 75 366 6
52 15 124 20 160 5 36 14 130 19 210 6 80 13 168 15 197 3 29 0 121 -5 205 -8
148 -24 237 -70 391 l-20 67 -113 0 -114 0 -72 -80 c-40 -44 -76 -80 -80 -80
-4 0 -10 28 -14 62 -3 34 -8 64 -11 66 -13 13 -15 -11 -7 -72 9 -71 3 -86 -45
-100 -23 -7 -23 -7 -23 98 l0 106 -56 0 -56 0 7 -30 c5 -21 0 -44 -15 -74 -26
-54 -39 -65 -82 -72 -25 -4 -39 0 -57 17 -20 19 -23 29 -18 73 2 28 8 59 12
69 7 16 -2 17 -98 17 -99 0 -106 -1 -112 -21 -7 -22 11 -43 28 -32 5 3 4 -4
-2 -16 -8 -13 -21 -21 -38 -21 -14 0 -23 -3 -19 -7 4 -4 15 -8 24 -8 9 0 16
-6 15 -12 -2 -9 9 -13 32 -13 20 0 35 5 35 12 0 6 3 8 6 5 14 -14 -18 -35 -61
-40 -35 -5 -54 -2 -94 19 -28 13 -53 29 -56 34 -3 5 1 23 10 39 8 17 15 37 15
45 0 14 -174 16 -1655 16 l-1655 0 0 -1670z m2891 1592 c-5 -120 -67 -459
-113 -616 l-20 -68 -41 5 c-23 4 -89 13 -147 21 -58 8 -160 18 -228 22 -67 4
-124 10 -127 13 -2 4 15 27 38 51 24 25 103 113 177 195 74 83 173 188 220
235 88 88 232 210 239 204 3 -3 3 -30 2 -62z m-413 -299 c-131 -151 -238 -264
-238 -252 0 21 28 75 56 108 29 34 263 251 271 251 2 0 -38 -48 -89 -107z
m1412 -327 l1 -307 -52 -65 c-29 -35 -54 -62 -56 -60 -2 2 10 86 27 187 39
229 60 389 60 450 0 47 10 113 16 106 2 -2 4 -142 4 -311z m-1091 -60 c-9 -8
-10 -5 -5 14 3 14 6 32 7 40 1 8 4 2 6 -14 3 -16 -1 -34 -8 -40z m-264 13 c39
-6 86 -12 105 -15 79 -9 105 -19 102 -39 -20 -109 -188 -495 -216 -495 -7 0
-42 11 -77 24 -52 19 -277 76 -303 76 -3 0 -6 -4 -6 -8 0 -4 39 -16 88 -26 91
-18 271 -73 286 -87 10 -9 -46 -69 -66 -69 -7 0 -51 13 -98 29 -47 16 -130 39
-185 51 -55 13 -103 26 -108 29 -9 8 71 329 114 460 l32 94 131 -7 c72 -4 163
-12 201 -17z m-818 -59 c45 5 51 1 48 -35 -2 -19 1 -37 6 -40 5 -4 14 -15 20
-26 10 -20 10 -20 -15 -4 -21 14 -29 15 -41 5 -9 -8 -30 -10 -57 -6 -24 3 -73
8 -110 12 -66 7 -67 7 -52 29 8 12 11 25 7 28 -3 4 30 7 75 7 83 0 95 6 67 34
-23 22 -18 28 9 10 14 -8 33 -15 43 -14z m1071 -37 c-50 -251 -137 -615 -149
-627 -5 -5 -159 67 -158 74 0 3 14 16 30 29 29 23 31 23 44 5 17 -23 19 -11 4
18 -10 18 -9 20 5 15 39 -16 49 -17 23 -2 -16 9 -27 19 -25 23 2 4 31 63 64
132 55 114 144 341 144 369 0 6 6 11 14 11 11 0 12 -9 4 -47z m-1641 -25 c-3
-7 -5 -2 -5 12 0 14 2 19 5 13 2 -7 2 -19 0 -25z m178 19 c-10 -8 -15 -19 -12
-24 9 -15 -27 -23 -98 -22 -44 0 -54 3 -38 9 12 5 24 18 28 29 6 18 14 21 73
21 58 0 64 -2 47 -13z m133 6 c-10 -2 -28 -2 -40 0 -13 2 -5 4 17 4 22 1 32
-1 23 -4z m-40 -40 c-15 -2 -42 -2 -60 0 -18 2 -6 4 27 4 33 0 48 -2 33 -4z
m524 -40 c-4 -25 -89 -137 -164 -218 -15 -16 -47 -56 -70 -87 -44 -59 -73 -80
-41 -30 58 89 263 360 274 361 3 1 4 -11 1 -26z m-28 -173 c-7 -47 -14 -100
-14 -118 l0 -34 -57 2 c-81 3 -82 3 -48 -24 17 -13 28 -26 25 -28 -6 -6 -186
-68 -195 -68 -9 0 46 68 181 225 104 121 117 135 120 133 1 -2 -4 -41 -12 -88z
m1976 0 c0 -32 -9 -37 -27 -19 -9 9 -9 16 0 30 17 27 27 23 27 -11z m-17 -38
c14 -16 14 -32 -4 -187 -25 -227 -68 -437 -87 -430 -8 3 -26 7 -40 10 -20 3
-17 1 11 -11 40 -18 43 -25 26 -73 -11 -30 -23 -39 -33 -23 -3 5 -33 17 -68
27 -35 10 -66 21 -71 25 -4 3 13 67 37 141 24 74 61 206 82 294 33 142 42 165
73 202 41 47 51 50 74 25z m-3126 -269 c-23 -174 -56 -373 -65 -389 -6 -11 -8
-33 -5 -49 4 -26 3 -28 -7 -11 -17 25 -12 214 8 356 16 104 19 116 42 127 14
7 27 13 29 13 2 0 1 -21 -2 -47z m3409 21 c-3 -7 -15 -80 -26 -161 -26 -187
-79 -396 -108 -425 -9 -9 -82 28 -82 40 0 4 18 42 39 87 40 80 122 309 136
375 16 80 26 110 36 104 6 -3 8 -12 5 -20z m-3497 -61 c-25 -150 -31 -242 -24
-390 12 -275 13 -326 7 -397 l-5 -69 -71 75 c-120 125 -154 218 -143 391 8
111 27 178 72 256 34 58 144 181 162 181 6 0 7 -19 2 -47z m1691 -61 c3 -3 -8
-2 -25 2 -16 4 -34 12 -40 17 -5 5 6 4 25 -2 19 -7 37 -14 40 -17z m-321 -8
c-17 -21 -31 -17 -19 6 6 11 15 18 21 14 6 -4 6 -11 -2 -20z m599 11 c2 -1 0
-15 -4 -30 -7 -27 -8 -27 -21 -9 -8 10 -19 27 -25 38 -9 17 -7 18 18 12 16 -4
30 -9 32 -11z m-640 -1 c-4 -3 -9 -5 -12 -5 -4 1 -17 -11 -30 -26 l-23 -27 0
29 c0 17 2 24 4 18 5 -14 24 -18 22 -5 -3 17 2 22 23 22 12 0 19 -3 16 -6z
m-10 -49 c-2 -1 -14 -8 -28 -15 -25 -13 -25 -13 -6 8 10 12 23 19 28 16 5 -3
8 -7 6 -9z m132 -84 c0 -20 -47 -64 -59 -57 -9 6 -5 16 15 37 28 30 44 37 44
20z m-1670 -5 c0 -3 -4 -8 -10 -11 -5 -3 -10 -1 -10 4 0 6 5 11 10 11 6 0 10
-2 10 -4z m1812 -20 c7 4 8 2 4 -5 -9 -13 -26 -5 -25 12 0 9 2 8 6 -1 2 -6 10
-9 15 -6z m-302 -110 c0 -3 -4 -8 -10 -11 -5 -3 -10 -1 -10 4 0 6 5 11 10 11
6 0 10 -2 10 -4z m1650 -65 c0 -12 -20 -25 -27 -18 -7 7 6 27 18 27 5 0 9 -4
9 -9z m-1180 -71 c0 -5 -4 -10 -10 -10 -5 0 -10 5 -10 10 0 6 5 10 10 10 6 0
10 -4 10 -10z m-82 -82 c-5 -32 -28 -35 -28 -4 0 17 5 26 16 26 10 0 14 -7 12
-22z m1416 -15 c-11 -4 -84 24 -84 32 0 2 21 -3 47 -12 26 -9 43 -18 37 -20z
m-1420 -39 c4 -10 1 -14 -6 -12 -15 5 -23 28 -10 28 5 0 13 -7 16 -16z m1236
-109 c0 -15 -38 -40 -47 -31 -7 7 26 46 39 46 4 0 8 -7 8 -15z m-130 -69 c0
-3 -4 -8 -10 -11 -5 -3 -10 -1 -10 4 0 6 5 11 10 11 6 0 10 -2 10 -4z m-2673
-133 c-2 -16 -4 -5 -4 22 0 28 2 40 4 28 2 -13 2 -35 0 -50z m2973 -3 c0 -5
-7 -10 -16 -10 -8 0 -12 5 -9 10 3 6 10 10 16 10 5 0 9 -4 9 -10z m-2964 -243
c2 -31 -1 -57 -5 -57 -12 0 -21 37 -21 83 0 62 23 39 26 -26z m-129 -39 c-3
-8 -6 -5 -6 6 -1 11 2 17 5 13 3 -3 4 -12 1 -19z m932 -33 c0 -5 -6 -1 -14 9
-8 10 -11 24 -8 29 6 10 21 -16 22 -38z m2 -60 c11 6 12 5 2 -5 -14 -15 -37
-1 -54 34 -7 13 -1 10 13 -8 17 -20 29 -27 39 -21z m90 -47 c26 -27 32 -39 22
-42 -8 -3 -12 -2 -9 3 3 4 -8 21 -25 37 -16 15 -38 44 -49 64 l-20 35 23 -30
c12 -16 38 -47 58 -67z m-923 -25 c25 -148 25 -144 -3 -88 -24 49 -36 155 -17
155 4 0 13 -30 20 -67z m50 -63 c0 -48 -1 -51 -9 -25 -5 16 -11 57 -14 90 -5
60 -5 60 9 25 8 -19 14 -60 14 -90z m807 100 c3 -6 -1 -7 -9 -4 -18 7 -21 14
-7 14 6 0 13 -4 16 -10z m-798 -192 c-3 -7 -5 -2 -5 12 0 14 2 19 5 13 2 -7 2
-19 0 -25z m819 -184 c124 -93 238 -170 362 -244 70 -42 78 -52 66 -84 -5 -14
-21 -15 -108 -10 l-101 7 -70 66 c-101 95 -150 137 -253 216 l-92 70 0 69 0
68 38 -34 c21 -19 92 -75 158 -124z m-1446 22 c0 -3 -4 -8 -10 -11 -5 -3 -10
-1 -10 4 0 6 5 11 10 11 6 0 10 -2 10 -4z m1348 -312 c12 -23 33 -55 48 -73
l26 -31 -27 10 c-15 6 -46 22 -71 36 -48 28 -49 31 -59 169 l-6 80 34 -75 c19
-41 43 -94 55 -116z m586 -29 c11 -8 15 -15 9 -15 -6 0 -18 -3 -27 -6 -12 -4
-16 0 -16 15 0 25 8 26 34 6z"/>
<path d="M3680 3010 c0 -6 7 -10 15 -10 8 0 15 2 15 4 0 2 -7 6 -15 10 -8 3
-15 1 -15 -4z"/>
<path d="M605 2600 c3 -5 11 -10 16 -10 6 0 7 5 4 10 -3 6 -11 10 -16 10 -6 0
-7 -4 -4 -10z"/>
<path d="M4400 4734 c0 -3 14 -37 30 -75 38 -85 70 -214 107 -424 26 -148 28
-179 27 -415 0 -275 -12 -422 -44 -557 -22 -91 -100 -313 -131 -375 -11 -21
-19 -42 -19 -48 0 -22 139 84 293 223 l77 70 0 804 0 803 -170 0 c-93 0 -170
-3 -170 -6z"/>
<path d="M4210 3315 c13 -14 26 -25 28 -25 3 0 -5 11 -18 25 -13 14 -26 25
-28 25 -3 0 5 -11 18 -25z"/>
<path d="M4660 3027 c-71 -66 -220 -183 -247 -194 -8 -3 -13 -25 -13 -57 -1
-135 -55 -233 -354 -638 -52 -70 -149 -234 -234 -394 -11 -21 -10 -21 61 5
102 38 179 94 286 207 106 112 192 236 241 347 18 42 37 77 41 77 15 0 -49
-159 -89 -223 -33 -54 -21 -57 15 -4 16 24 48 66 71 93 116 137 218 279 271
379 l31 61 -2 206 -3 206 -75 -71z"/>
<path d="M4324 2743 c-49 -113 -79 -166 -114 -201 l-35 -36 35 25 c24 18 55
62 97 140 65 119 70 129 53 129 -6 0 -22 -26 -36 -57z"/>
<path d="M2033 2563 c7 -11 83 -33 111 -33 29 0 16 17 -16 23 -18 3 -48 9 -67
13 -23 5 -32 4 -28 -3z"/>
<path d="M4091 2399 c-18 -22 -52 -54 -74 -70 -37 -27 -117 -149 -98 -149 10
0 110 99 128 127 13 19 24 23 65 23 42 0 49 3 44 16 -3 9 -9 33 -12 55 -4 21
-9 39 -13 39 -3 0 -21 -19 -40 -41z"/>
<path d="M4706 2314 c-41 -101 -42 -107 -1 -31 20 38 35 76 33 85 -2 8 -16
-16 -32 -54z"/>
<path d="M3381 2272 c-1 -20 30 -82 40 -82 13 0 11 9 -10 38 -10 15 -21 34
-24 42 -4 11 -6 11 -6 2z"/>
<path d="M3171 2124 c0 -11 3 -14 6 -6 3 7 2 16 -1 19 -3 4 -6 -2 -5 -13z"/>
<path d="M500 2113 c0 -9 49 -33 67 -33 27 0 12 28 -18 34 -41 8 -49 8 -49 -1z"/>
<path d="M3470 2087 c18 -19 76 -32 84 -19 3 6 -10 13 -30 16 -19 4 -43 10
-52 13 -15 5 -15 4 -2 -10z"/>
<path d="M4681 1994 c0 -11 3 -14 6 -6 3 7 2 16 -1 19 -3 4 -6 -2 -5 -13z"/>
<path d="M4682 1953 c-1 -13 -7 -23 -14 -23 -7 0 -26 -15 -42 -32 -19 -22 -23
-24 -13 -8 36 54 37 63 4 26 -71 -80 -53 -181 60 -338 34 -47 64 -67 44 -30
-9 17 -29 225 -34 357 -2 39 -4 60 -5 48z"/>
<path d="M2627 1746 c-15 -14 -27 -30 -27 -36 0 -5 9 -1 20 10 22 22 63 35 85
26 11 -4 14 -13 9 -31 -4 -16 -2 -25 6 -25 7 0 10 14 8 38 -3 35 -5 37 -39 40
-26 2 -42 -3 -62 -22z"/>
<path d="M4365 1685 c-33 -25 -80 -55 -104 -67 -81 -41 -190 -176 -214 -265
-6 -23 -14 -40 -19 -37 -37 23 60 196 156 281 48 43 71 79 56 88 -5 3 -49 -1
-97 -10 -52 -9 -148 -15 -234 -15 -141 0 -146 -1 -156 -22 -22 -48 -95 -128
-155 -171 -84 -60 -171 -103 -297 -147 -57 -21 -99 -40 -94 -43 6 -4 21 -28
33 -54 27 -57 22 -100 -16 -150 -24 -32 -27 -42 -25 -114 l2 -79 -28 10 -28
10 29 -24 c35 -29 31 -46 -27 -131 -25 -37 -32 -52 -18 -40 28 24 38 12 47
-57 4 -27 10 -48 15 -48 12 0 11 4 -6 75 -8 33 -14 65 -15 71 0 20 29 24 73 9
43 -14 83 -14 108 0 12 8 12 6 0 -8 -9 -11 -11 -28 -7 -52 4 -19 3 -35 -1 -35
-5 0 -33 -18 -63 -41 -31 -23 -61 -38 -71 -36 -10 3 -20 -1 -23 -8 -3 -8 -17
-15 -33 -18 l-28 -4 29 -2 c28 -1 29 -2 22 -48 -8 -61 -71 -157 -173 -264 -42
-44 -74 -82 -71 -84 3 -3 37 29 77 71 39 43 71 74 71 70 0 -15 -49 -202 -65
-245 -8 -24 -15 -45 -15 -47 0 -2 38 -4 83 -4 l84 0 17 63 c10 34 24 77 32 95
12 28 12 34 -3 52 -9 10 -20 17 -23 15 -11 -7 -80 64 -80 82 0 10 16 45 36 77
19 33 40 83 46 112 8 40 16 55 32 60 11 4 33 15 49 26 26 18 27 18 28 1 0 -11
5 -5 12 14 7 18 22 42 34 54 l22 22 40 -26 c81 -54 161 -174 226 -339 20 -51
40 -96 44 -100 14 -16 87 15 122 52 39 41 120 196 128 245 1 6 9 20 17 32 21
33 9 28 -44 -16 -69 -57 -141 -91 -218 -102 -37 -5 -69 -7 -72 -4 -9 9 -11 36
-2 30 4 -2 34 24 66 58 223 235 499 732 589 1060 8 31 20 57 24 57 5 0 5 -14
0 -32 -13 -49 -56 -256 -64 -308 -12 -81 -73 -277 -149 -476 -42 -111 -54
-154 -41 -154 16 0 128 48 166 72 53 32 87 96 114 212 18 76 14 115 -4 49 -8
-28 -24 -52 -49 -73 -40 -33 -140 -86 -147 -78 -12 12 20 70 53 94 85 64 168
181 177 251 4 26 20 102 36 168 26 110 38 177 54 294 5 36 3 42 -10 38 -20 -8
-19 12 2 35 28 31 1 19 -62 -27z m-445 -1185 c0 -5 -7 -10 -16 -10 -11 0 -14
-5 -10 -16 4 -10 1 -14 -6 -12 -7 3 -19 -1 -26 -9 -7 -7 -18 -13 -23 -13 -12
0 3 15 45 48 32 25 36 26 36 12z m-110 -70 c-8 -5 -19 -10 -25 -10 -5 0 -3 5
5 10 8 5 20 10 25 10 6 0 3 -5 -5 -10z"/>
<path d="M195 1530 c10 -11 20 -20 22 -20 2 0 -1 9 -7 20 -6 11 -16 20 -22 20
-6 0 -3 -9 7 -20z"/>
<path d="M320 1508 c0 -25 39 -85 40 -61 0 7 7 10 18 6 11 -4 7 5 -13 28 -16
19 -33 38 -37 44 -5 5 -8 -3 -8 -17z"/>
<path d="M18 1265 c2 -25 9 -45 14 -45 6 0 8 10 4 23 -3 12 -6 32 -6 45 0 12
-3 22 -8 22 -4 0 -6 -20 -4 -45z"/>
<path d="M1930 1214 c0 -7 62 -94 67 -94 2 0 1 5 -2 10 -3 6 0 10 8 10 10 0
13 -7 10 -18 -2 -10 5 -26 16 -36 12 -11 21 -14 21 -8 0 7 -4 12 -10 12 -5 0
-10 7 -10 15 0 20 16 19 24 -1 4 -11 13 -13 28 -9 l23 7 -23 -22 c-35 -33 -13
-46 34 -20 71 40 93 71 58 84 -8 3 -13 2 -10 -3 3 -5 -8 -14 -24 -21 -23 -9
-33 -10 -44 -1 -10 8 -16 9 -19 1 -3 -6 -4 -5 -3 2 2 7 14 12 27 10 13 -1 30
0 38 3 14 5 14 7 1 15 -10 7 -11 10 -2 10 6 0 12 5 12 11 0 15 -142 1 -153
-15 -6 -7 -7 -6 -4 4 2 10 22 17 56 21 49 7 70 14 60 23 -11 10 -149 12 -153
2 -3 -7 -5 -6 -5 2 -1 12 -21 18 -21 6z"/>
<path d="M2140 1200 c0 -7 8 -9 20 -5 12 4 28 1 37 -7 14 -11 16 -11 11 2 -5
18 -68 27 -68 10z"/>
<path d="M2160 1181 c0 -9 30 -24 36 -18 2 1 -6 8 -16 15 -11 7 -20 8 -20 3z"/>
<path d="M66 1090 c3 -14 6 -30 6 -37 1 -7 5 -10 10 -7 4 3 4 13 -1 22 -4 9
-11 24 -15 32 -3 8 -4 4 0 -10z"/>
<path d="M0 1079 c0 -27 78 -136 153 -216 110 -116 190 -174 327 -240 63 -30
161 -77 216 -104 56 -26 126 -59 157 -73 30 -13 57 -28 60 -32 5 -9 10 -41 27
-189 16 -144 31 -225 41 -225 5 0 9 8 9 18 0 18 -24 213 -39 317 -4 33 -7 62
-5 64 2 2 32 -14 66 -36 35 -22 118 -69 186 -104 99 -52 139 -79 204 -141 45
-43 83 -76 85 -75 1 2 -22 30 -52 62 -30 33 -52 61 -50 63 3 3 11 -1 20 -8 9
-7 18 -10 21 -7 3 3 23 -1 44 -8 47 -16 196 -45 236 -45 16 0 55 -14 88 -31
96 -51 154 -67 211 -59 28 4 41 8 29 9 -49 3 -191 45 -224 67 -25 16 -61 26
-125 34 -108 13 -117 15 -225 47 -101 30 -262 106 -368 175 -41 28 -130 75
-196 106 -67 31 -170 79 -231 108 -60 28 -120 55 -132 59 -13 3 -23 11 -23 16
0 5 -9 9 -19 9 -11 0 -32 10 -48 23 -15 13 -54 38 -87 57 -82 49 -187 146
-180 168 4 12 3 14 -3 4 -8 -10 -12 -10 -23 3 -12 14 -11 18 1 26 8 5 9 9 3 9
-6 0 -17 11 -24 25 -7 14 -17 25 -22 25 -5 0 0 -13 12 -30 12 -16 19 -30 15
-30 -11 0 -54 54 -91 113 -36 58 -44 66 -44 46z"/>
<path d="M194 879 c-11 -18 14 -35 29 -20 10 10 8 11 -7 5 -16 -6 -18 -4 -13
9 7 19 2 23 -9 6z"/>
<path d="M4330 865 c-5 -14 -9 -202 -8 -445 1 -336 4 -420 14 -420 10 0 13 88
14 445 0 245 -2 445 -5 445 -3 0 -10 -11 -15 -25z"/>
<path d="M480 846 c0 -8 12 -23 28 -34 52 -36 57 -35 17 7 -44 46 -45 47 -45
27z"/>
<path d="M2156 780 c9 -35 33 -78 33 -60 0 8 -9 31 -20 50 -15 26 -18 29 -13
10z"/>
<path d="M590 735 c7 -8 17 -15 22 -15 6 0 5 7 -2 15 -7 8 -17 15 -22 15 -6 0
-5 -7 2 -15z"/>
<path d="M370 726 c7 -7 13 -7 20 0 6 6 3 10 -10 10 -13 0 -16 -4 -10 -10z"/>
<path d="M510 725 c0 -18 43 -75 56 -75 12 0 11 6 -5 28 -23 33 -51 58 -51 47z"/>
<path d="M442 701 c-11 -6 -7 -13 14 -30 14 -11 32 -21 40 -21 7 0 21 -3 31
-7 17 -7 17 -6 1 11 -10 9 -18 21 -18 26 0 4 -8 11 -17 14 -15 6 -15 4 2 -14
22 -24 13 -26 -21 -3 -19 12 -22 18 -12 24 7 5 9 9 3 9 -5 0 -16 -4 -23 -9z"/>
<path d="M3077 648 c-57 -75 -173 -179 -245 -222 -187 -109 -482 -229 -525
-213 -8 3 -11 27 -9 81 l4 76 56 41 c54 39 44 46 -20 13 -31 -16 -48 -18 -48
-5 0 16 -82 242 -86 238 -2 -2 5 -29 15 -60 29 -82 64 -263 65 -332 1 -49 -4
-69 -26 -107 -31 -52 -100 -116 -135 -124 -13 -4 -23 -10 -23 -15 0 -14 9 -11
54 20 56 39 102 87 116 122 10 22 19 29 41 29 41 0 207 55 305 101 45 21 88
39 93 39 15 0 14 -20 -1 -20 -7 -1 -2 -7 12 -14 33 -19 43 -10 37 29 -4 27 -1
35 19 45 13 8 26 11 27 9 2 -2 21 -44 42 -94 55 -132 62 -125 10 10 -41 105
-41 99 14 135 68 43 264 250 238 250 -3 0 -16 -15 -30 -32z"/>
<path d="M557 629 c7 -7 15 -10 18 -7 3 3 -2 9 -12 12 -14 6 -15 5 -6 -5z"/>
<path d="M4016 609 c-20 -40 -20 -39 3 -39 15 0 18 5 14 21 -3 12 0 25 7 29 8
5 9 10 2 14 -6 3 -18 -8 -26 -25z"/>
<path d="M1050 615 c0 -2 10 -10 23 -16 20 -11 21 -11 8 4 -13 16 -31 23 -31
12z"/>
<path d="M1600 561 c0 -5 5 -13 10 -16 6 -3 10 -2 10 4 0 5 -4 13 -10 16 -5 3
-10 2 -10 -4z"/>
<path d="M3968 487 c-43 -102 -110 -223 -141 -255 -33 -35 -85 -62 -118 -62
-23 0 -23 -1 -2 -95 l16 -75 93 0 94 0 5 28 c4 15 10 45 15 67 49 207 70 311
65 323 -2 7 -1 11 4 8 5 -3 11 12 15 33 3 22 8 46 12 54 3 9 -3 16 -16 20 -17
4 -24 -3 -42 -46z"/>
<path d="M1658 485 c5 -11 22 -31 37 -45 23 -21 26 -21 17 -5 -5 11 -22 31
-37 45 -23 21 -26 21 -17 5z"/>
<path d="M3291 454 c0 -11 3 -14 6 -6 3 7 2 16 -1 19 -3 4 -6 -2 -5 -13z"/>
<path d="M3275 410 c3 -5 8 -10 11 -10 2 0 4 5 4 10 0 6 -5 10 -11 10 -5 0 -7
-4 -4 -10z"/>
<path d="M2317 339 c4 -13 8 -18 11 -10 2 7 -1 18 -6 23 -8 8 -9 4 -5 -13z"/>
<path d="M3256 344 c-4 -10 -1 -14 6 -12 15 5 23 28 10 28 -5 0 -13 -7 -16
-16z"/>
<path d="M2670 290 c8 -5 20 -10 25 -10 6 0 3 5 -5 10 -8 5 -19 10 -25 10 -5
0 -3 -5 5 -10z"/>
<path d="M3236 262 c-5 -18 -5 -36 -2 -39 7 -7 19 43 13 59 -2 7 -7 -2 -11
-20z"/>
<path d="M2905 140 c-3 -5 -1 -10 4 -10 6 0 11 5 11 10 0 6 -2 10 -4 10 -3 0
-8 -4 -11 -10z"/>
<path d="M1835 110 c-19 -8 -19 -9 2 -9 12 -1 25 4 28 9 7 12 -2 12 -30 0z"/>
<path d="M2924 72 c9 -23 20 -50 26 -60 10 -15 11 -15 5 3 -23 67 -29 81 -37
90 -5 5 -2 -9 6 -33z"/>
<path d="M1496 16 c3 -9 11 -16 16 -16 13 0 5 23 -10 28 -7 2 -10 -2 -6 -12z"/>
<path d="M2160 16 c0 -9 5 -16 10 -16 6 0 10 4 10 9 0 6 -4 13 -10 16 -5 3
-10 -1 -10 -9z"/>
<path d="M2060 10 c0 -5 5 -10 10 -10 6 0 10 5 10 10 0 6 -4 10 -10 10 -5 0
-10 -4 -10 -10z"/>
</g>
</svg>
